<?xml version="1.0" encoding="utf-8"?>
<!-- Generator: Adobe Illustrator 25.0.0, SVG Export Plug-In . SVG Version: 6.00 Build 0)  -->
<svg version="1.1" id="Layer_1" xmlns="http://www.w3.org/2000/svg" xmlns:xlink="http://www.w3.org/1999/xlink" x="0px" y="0px"
	 viewBox="0 0 207.38 53.16" style="enable-background:new 0 0 207.38 53.16;" xml:space="preserve">
<style type="text/css">
	.st0{fill:#FFFFFF;}
</style>
<g>
	<g>
		<path class="st0" d="M83.92,0H73.3c-5.03,13.91-13.44,36.97-18.08,49.66c-0.46,1.2-1.03,2.37-1.74,3.49h0.46v0.01h6.88
			c1.84,0,3.8-1.25,4.76-2.97c0.16-0.27,0.3-0.55,0.41-0.84l4.42-12.14l0,0C75.91,22.14,83.36,1.65,83.92,0"/>
		<path class="st0" d="M196.73,26.58l-4.43,12.15c-0.76,2.09-3.04,3.8-5.13,3.8h-7.36c0.77-1.21,1.4-2.48,1.88-3.8l4.43-12.14
			h-10.65l-4.42,12.14c-0.76,2.09-3.05,3.8-5.15,3.8h-3.55h-3.81c0.77-1.21,1.39-2.48,1.87-3.8l4.43-12.15H154.2l-4.42,12.15
			c-0.76,2.09-3.05,3.8-5.14,3.8h-33.98c0.77-1.21,1.42-2.41,1.9-3.72l1.12-3.11c2.9-7.96-1.22-14.43-9.18-14.43H92.4L88.54,31.9
			h12.11c2.09,0,3.18,1.7,2.42,3.8l-1.18,3.11c-0.76,2.09-3.02,3.72-5.12,3.72H79.28l-3.86,10.63h107.94
			c7.96,0,16.66-6.4,19.56-14.35l4.46-12.22L196.73,26.58L196.73,26.58z"/>
		<path class="st0" d="M28.1,53.16H0l3.87-10.63h28.1c2.09,0,4.42-1.7,5.18-3.8l1.1-3.04c0.76-2.09-0.32-3.8-2.41-3.8H18.38
			l3.86-10.63h17.44c7.96,0,12.07,6.47,9.18,14.43l-1.08,3.04C44.88,46.68,36.05,53.16,28.1,53.16"/>
	</g>
</g>
</svg>
